<svg xmlns="http://www.w3.org/2000/svg" fill="none" viewBox="0 0 48 48"><path stroke-linejoin="round" stroke-linecap="round" stroke-width="4" stroke="#333" d="M24 44c11.046 0 20-8.954 20-20S35.046 4 24 4 4 12.954 4 24s8.954 20 20 20Z"/><path fill="#2F88FF" d="M31 7v17V7Z" clip-rule="evenodd" fill-rule="evenodd"/><path stroke-linejoin="round" stroke-linecap="round" stroke-width="4" stroke="#333" d="M31 7v17"/><path fill="#2F88FF" d="m16.636 6.636 14.142 14.142L16.636 6.636Z" clip-rule="evenodd" fill-rule="evenodd"/><path stroke-linejoin="round" stroke-linecap="round" stroke-width="4" stroke="#333" d="m16.636 6.636 14.142 14.142"/><path fill="#2F88FF" d="M7 17h17H7Z" clip-rule="evenodd" fill-rule="evenodd"/><path stroke-linejoin="round" stroke-linecap="round" stroke-width="4" stroke="#333" d="M7 17h17"/><path fill="#2F88FF" d="M20.364 17.636 6.222 31.778l14.142-14.142Z" clip-rule="evenodd" fill-rule="evenodd"/><path stroke-linejoin="round" stroke-linecap="round" stroke-width="4" stroke="#333" d="M20.364 17.636 6.222 31.778"/><path fill="#2F88FF" d="M17 25v17-17Z" clip-rule="evenodd" fill-rule="evenodd"/><path stroke-linejoin="round" stroke-linecap="round" stroke-width="4" stroke="#333" d="M17 25v17"/><path fill="#2F88FF" d="m17.636 27.636 14.142 14.142-14.142-14.142Z" clip-rule="evenodd" fill-rule="evenodd"/><path stroke-linejoin="round" stroke-linecap="round" stroke-width="4" stroke="#333" d="m17.636 27.636 14.142 14.142"/><path fill="#2F88FF" d="M24 31h18-18Z" clip-rule="evenodd" fill-rule="evenodd"/><path stroke-linejoin="round" stroke-linecap="round" stroke-width="4" stroke="#333" d="M24 31h18"/><path fill="#2F88FF" d="M42.364 16.636 28.222 30.778l14.142-14.142Z" clip-rule="evenodd" fill-rule="evenodd"/><path stroke-linejoin="round" stroke-linecap="round" stroke-width="4" stroke="#333" d="M42.364 16.636 28.222 30.778"/><path stroke-linejoin="round" stroke-linecap="round" stroke-width="4" stroke="#333" fill="#2F88FF" d="M24 31a7 7 0 1 0 0-14 7 7 0 0 0 0 14Z"/></svg>